<?xml version="1.0" encoding="utf-8"?>
<!-- Generator: Adobe Illustrator 21.0.0, SVG Export Plug-In . SVG Version: 6.00 Build 0)  -->
<svg version="1.1" id="Layer_1" xmlns="http://www.w3.org/2000/svg" xmlns:xlink="http://www.w3.org/1999/xlink" x="0px" y="0px"
	 viewBox="0 0 918 275.3" style="enable-background:new 0 0 918 275.3;" xml:space="preserve">
<style type="text/css">
	.st0{fill:#F6AA23;}
	.st1{fill:#0A4193;}
	.st2{fill:#1058A0;}
	.st3{fill:#053A70;}
	.st4{fill:#FFFFFF;}
	.st5{enable-background:new    ;}
	.st6{clip-path:url(#SVGID_2_);}
	.st7{clip-path:url(#SVGID_4_);}
	.st8{clip-path:url(#SVGID_6_);}
	.st9{clip-path:url(#SVGID_8_);fill:#FFFFFF;}
	.st10{clip-path:url(#SVGID_10_);}
</style>
<g>
	<g>
		<g>
			<path class="st0" d="M315.6,200c7.6,0,13.6,3.8,16.2,10.6h-5.5c-1.9-4.2-5.6-6.6-10.7-6.6c-7.3,0-12.8,5.3-12.8,13.9
				c0,8.5,5.5,13.8,12.8,13.8c5.1,0,8.8-2.4,10.7-6.5h5.5c-2.6,6.7-8.6,10.5-16.2,10.5c-9.8,0-17.4-7.3-17.4-17.8
				S305.8,200,315.6,200z"/>
			<path class="st0" d="M360.8,235.7c-9.8,0-17.5-7.4-17.5-17.8s7.7-17.8,17.5-17.8c9.9,0,17.5,7.4,17.5,17.8
				S370.7,235.7,360.8,235.7z M360.8,231.8c7.4,0,12.9-5.4,12.9-13.9c0-8.6-5.5-13.9-12.9-13.9c-7.4,0-12.9,5.3-12.9,13.9
				C348,226.4,353.5,231.8,360.8,231.8z"/>
			<path class="st0" d="M390.9,200.7h4.9l12.8,28.6l12.8-28.6h4.9v34.6h-4.6v-25.8l-11.5,25.8H407l-11.6-25.9v25.9h-4.6V200.7z"/>
			<path class="st0" d="M451.7,220.8H445v14.6h-4.6v-34.9h11.3c8.2,0,12.1,4.5,12.1,10.2C463.8,216,460.4,220.8,451.7,220.8z
				 M451.7,217c5.2,0,7.4-2.5,7.4-6.4c0-4.1-2.2-6.5-7.4-6.5H445V217H451.7z"/>
			<path class="st0" d="M475.9,200.5h4.6v22.1c0,6.4,3.5,9.2,8.6,9.2c5.2,0,8.6-2.8,8.6-9.2v-22.1h4.6v22c0,9.1-6,13.2-13.2,13.2
				s-13.1-4.2-13.1-13.2V200.5z"/>
			<path class="st0" d="M514.1,200.5h23.6v3.7h-9.5v31.2h-4.6v-31.2h-9.6V200.5z"/>
			<path class="st0" d="M568.6,204.2h-14.2v11.7h12.7v3.8h-12.7v12h14.2v3.8h-18.8v-34.9h18.8V204.2z"/>
			<path class="st0" d="M593.3,200.5c8.2,0,12.1,4.6,12.1,10.3c0,4.5-2.5,8.7-8.3,10l8.8,14.6h-5.5l-8.3-14.3h-5.5v14.3H582v-34.9
				H593.3z M593.3,204.2h-6.7v13.2h6.7c5.2,0,7.4-2.8,7.4-6.7C600.7,206.8,598.5,204.2,593.3,204.2z"/>
			<path class="st0" d="M638.8,200.5h4.6v34.9h-4.6V200.5z"/>
			<path class="st0" d="M685.1,200.4v34.9h-4.6l-18.3-27.8v27.8h-4.6v-34.9h4.6l18.3,27.7v-27.7H685.1z"/>
			<path class="st0" d="M710.4,235.7c-7,0-12-3.9-12.1-9.7h4.9c0.3,2.9,2.4,5.8,7.2,5.8c4.4,0,7-2.5,7-5.8c0-9.4-18.9-3.4-18.9-16.4
				c0-5.8,4.7-9.7,11.6-9.7c6.7,0,11,3.7,11.6,9h-5c-0.3-2.4-2.5-5-6.8-5.1c-3.8-0.1-6.7,1.9-6.7,5.6c0,9,18.8,3.4,18.8,16.3
				C722,230.8,718,235.7,710.4,235.7z"/>
			<path class="st0" d="M733.1,200.5h23.6v3.7h-9.5v31.2h-4.6v-31.2h-9.6V200.5z"/>
			<path class="st0" d="M768.8,200.5h4.6v34.9h-4.6V200.5z"/>
			<path class="st0" d="M785.5,200.5h23.6v3.7h-9.5v31.2h-4.6v-31.2h-9.6V200.5z"/>
			<path class="st0" d="M821.1,200.5h4.6v22.1c0,6.4,3.5,9.2,8.6,9.2c5.2,0,8.6-2.8,8.6-9.2v-22.1h4.6v22c0,9.1-6,13.2-13.2,13.2
				s-13.1-4.2-13.1-13.2V200.5z"/>
			<path class="st0" d="M859.4,200.5H883v3.7h-9.5v31.2h-4.6v-31.2h-9.6V200.5z"/>
			<path class="st0" d="M913.9,204.2h-14.2v11.7h12.7v3.8h-12.7v12h14.2v3.8h-18.8v-34.9h18.8V204.2z"/>
		</g>
	</g>
	<g>
		<g>
			<path class="st1" d="M357,179.2h-27.7c-12.2-0.1-21.6-3.2-28.1-9.3c-6.5-6.1-9.7-14.5-9.7-25v-37.4c0-4-0.1-7.4-0.2-10
				c-0.1-2.7-0.5-4.8-1.2-6.4c-0.7-1.6-1.7-2.8-3.1-3.5c-1.4-0.7-3.4-1-6-1l-1.3-0.4v-5.5h77.5v7.2h-41.8c-2.1,0.3-3.7,0.8-4.9,1.7
				c-1.2,0.9-2.1,2.1-2.6,3.7c-0.6,1.6-0.9,3.7-1,6.2c-0.1,2.5-0.1,5.6-0.1,9.2v14.6h35.8v6h-35.8v19.8c0,4.4,0.7,8,2,10.9
				c1.4,2.9,3.1,5.2,5.2,7c2.1,1.8,4.6,3,7.3,3.7c2.7,0.7,5.4,1,8.1,1H357V179.2z"/>
			<path class="st1" d="M447.1,148.7c-2.1,6.2-5,11.6-8.6,16.1c-3.6,4.5-7.8,8-12.7,10.6c-4.8,2.6-10,3.8-15.5,3.6
				c-0.8,0-1.7,0-2.9,0.1c-1.1,0-3.2,0.1-6.3,0.1c-3.1,0-7.5,0-13.4,0c-5.9,0-13.9,0-24.3-0.1V173c2.9,0,5.1-0.3,6.8-1
				c1.6-0.7,2.8-1.9,3.5-3.5c0.7-1.6,1.2-3.8,1.3-6.4c0.1-2.7,0.2-6,0.2-10v-44.6c0-4-0.1-7.4-0.2-10c-0.1-2.7-0.5-4.8-1.2-6.4
				c-0.7-1.6-1.7-2.8-3.1-3.5c-1.4-0.7-3.4-1-6-1h-1.3v-5.9h38.8c7.7,0,14.5,1.1,20.5,3.3c5.9,2.2,10.9,5.4,15,9.6
				c4.1,4.2,7.2,9.2,9.3,15.1c2.1,5.9,3.2,12.6,3.2,20.1C450.3,135.8,449.2,142.5,447.1,148.7z M394.2,89.9c-1,0.2-1.8,0.7-2.3,1.4
				c-1,2.3-1.4,5.9-1.4,10.7v50.1c0,5.1,0.1,9.1,0.3,12.1c0.2,3,1,5.2,2.4,6.6c6.7,1.1,12.4,1.4,17,0.7c4.6-0.7,8.5-2,11.5-4
				c3.1-2,5.5-4.4,7.2-7.4c1.7-3,3.1-6.1,3.9-9.5c0.9-3.4,1.4-6.8,1.6-10.2c0.2-3.5,0.3-6.7,0.3-9.8c0-13.3-3.1-23.4-9.2-30.4
				c-6.2-7-15.3-10.5-27.3-10.5C396.5,89.5,395.2,89.7,394.2,89.9z"/>
			<path class="st1" d="M479,159.5c1.4,2.9,3.1,5.3,5.3,7c2.2,1.8,4.6,3,7.3,3.7c2.7,0.7,5.4,1.1,8.1,1c2.7,0.1,5.4-0.2,8.2-0.9
				c2.8-0.7,5.2-1.9,7.4-3.7c2.2-1.7,4-4.1,5.3-7.1c1.4-3,2-6.6,2-11v-41c0-4-0.1-7.4-0.2-10c-0.1-2.7-0.6-4.8-1.3-6.4
				c-0.7-1.6-1.9-2.8-3.5-3.5c-1.6-0.7-3.9-1-6.8-1v-5.9h38.8v5.9h-1.3c-2.6,0-4.6,0.4-6,1c-1.4,0.7-2.4,1.9-3.1,3.5
				c-0.7,1.6-1.1,3.8-1.2,6.4c-0.1,2.7-0.2,6-0.2,10v37c0,5.3-0.8,10.1-2.5,14.4c-1.7,4.2-4.1,7.8-7.3,10.8c-3.2,3-7.2,5.3-11.8,6.9
				c-4.6,1.6-9.9,2.4-15.7,2.4c-12.5,0-22-3.1-28.6-9.2c-6.6-6.2-9.9-14.6-9.9-25.2v-37c0-4-0.1-7.4-0.2-10
				c-0.1-2.7-0.5-4.8-1.2-6.4c-0.7-1.6-1.7-2.8-3.1-3.5c-1.4-0.7-3.4-1-6-1l-1.3-0.4v-5.5h38.8v5.9c-2.9,0-5.1,0.4-6.8,1
				c-1.6,0.7-2.8,1.9-3.5,3.5c-0.7,1.6-1.2,3.8-1.3,6.4c-0.1,2.7-0.2,6-0.2,10v41C477,152.9,477.7,156.6,479,159.5z"/>
			<path class="st1" d="M602.5,90.5v61.6c0,4,0.1,7.4,0.2,10c0.1,2.7,0.5,4.8,1.2,6.4c0.7,1.6,1.7,2.8,3.1,3.5c1.4,0.7,3.4,1,6,1
				h1.3v5.9h-38.8V173c2.9,0,5.1-0.3,6.8-1c1.6-0.7,2.8-1.9,3.5-3.5c0.7-1.6,1.2-3.8,1.3-6.4c0.1-2.7,0.2-6,0.2-10V90.5H581
				c-4.6,0-8.3,0-11.1,0c-2.7,0-4.8,0.2-6.2,0.7c-1.4,0.4-2.4,1.2-2.8,2.3c-0.4,1.1-0.7,2.7-0.8,4.9v4.1h-5.9V80.6h81.5v21.6h-5.9
				c-0.2-2.9-0.3-5.1-0.3-6.7c0-1.6-0.3-2.7-0.8-3.5c-0.5-0.7-1.3-1.2-2.4-1.4c-1.1-0.2-2.8-0.3-5-0.3H602.5z"/>
			<path class="st1" d="M633.1,178.9V173c2.9,0,5.1-0.3,6.8-1c1.6-0.7,2.8-1.9,3.5-3.5c0.7-1.6,1.2-3.8,1.3-6.4
				c0.1-2.7,0.2-6,0.2-10v-38.8c0.3-10.1,3.8-18.1,10.4-24c6.6-5.9,16-8.8,28.1-8.8c11.5,0,20.5,2.9,27,8.8
				c6.5,5.9,9.9,13.9,10.4,24c-0.3,8.4-2.8,15.3-7.2,20.7c-4.5,5.4-10.7,9-18.7,10.7c2.1,1.1,3.9,2.4,5.5,3.7
				c1.6,1.3,2.9,2.8,3.9,4.5c1,1.7,1.9,3.7,2.4,6c0.6,2.3,0.9,4.9,0.9,7.9c-0.1,1.3,0,2.4,0.2,3.2c0.2,0.8,0.7,1.5,1.4,1.9
				c0.7,0.4,1.8,0.7,3.3,0.9c1.4,0.2,3.3,0.3,5.7,0.3h0.3v5.9h-37.8V173c2.3,0,4.1-0.1,5.6-0.3c1.4-0.2,2.6-0.7,3.5-1.3
				c0.9-0.7,1.5-1.6,1.8-2.8c0.3-1.2,0.6-2.9,0.8-5c-0.3-2.9-0.7-5.2-1.2-7c-0.6-1.8-1.5-3.3-2.7-4.5c-1.2-1.2-2.8-2.2-4.8-3.2
				c-2-1-4.5-2.1-7.5-3.3c-2.4-0.6-5.2-1.6-8.1-3c-3-1.4-5.6-3.2-8-5.5v14.9c0,4,0.1,7.4,0.2,10c0.1,2.7,0.5,4.8,1.2,6.4
				c0.7,1.6,1.7,2.8,3.1,3.5c1.4,0.7,3.4,1,6,1h1.3v5.9H633.1z M660,117.5c0.2,4,1,7.4,2.4,10c1.4,2.7,3.2,4.8,5.4,6.4
				c2.1,1.6,4.5,2.8,7.1,3.4c2.6,0.7,5.2,0.9,7.9,0.9c2.7,0.1,5.4-0.2,8.2-0.9c2.8-0.7,5.2-1.9,7.4-3.7c2.2-1.7,4-4.1,5.3-7.1
				c1.4-3,2-6.6,2-11v-4.6c0-4.4-0.7-8-2-11c-1.4-3-3.1-5.3-5.3-7.1c-2.2-1.7-4.7-3-7.4-3.7c-2.8-0.7-5.5-1-8.2-0.9
				c-2.7-0.1-5.4,0.2-8.1,1c-2.7,0.7-5.2,2-7.3,3.7c-2.2,1.7-4,4.1-5.3,7c-1.4,2.9-2,6.6-2,10.9V117.5z"/>
			<path class="st1" d="M805,144.5c0,5.3-0.8,10.1-2.5,14.4c-1.7,4.2-4.1,7.8-7.3,10.8c-3.2,3-7.2,5.3-11.8,6.9
				c-4.6,1.6-9.9,2.4-15.7,2.4c-12.5,0-22-3.1-28.6-9.2c-6.6-6.2-9.9-14.6-9.9-25.2V115c0-10.7,3.3-19.1,9.9-25.2
				c6.6-6.2,16.1-9.2,28.6-9.2c5.9,0,11.1,0.8,15.7,2.4c4.6,1.6,8.6,3.9,11.8,6.9c3.2,3,5.7,6.6,7.3,10.8c1.7,4.2,2.5,9,2.5,14.4
				V144.5z M746.2,159.5c1.4,2.9,3.1,5.3,5.3,7c2.2,1.8,4.6,3,7.3,3.7c2.7,0.7,5.4,1.1,8.1,1c2.7,0.1,5.4-0.2,8.2-0.9
				c2.8-0.7,5.2-1.9,7.4-3.7c2.2-1.7,4-4.1,5.3-7.1c1.4-3,2-6.6,2-11v-37.6c0-4.4-0.7-8-2-11c-1.4-3-3.1-5.3-5.3-7.1
				c-2.2-1.7-4.7-3-7.4-3.7c-2.8-0.7-5.5-1-8.2-0.9c-2.7-0.1-5.4,0.2-8.1,1c-2.7,0.7-5.2,2-7.3,3.7c-2.2,1.7-4,4.1-5.3,7
				c-1.4,2.9-2,6.6-2,10.9v37.6C744.2,152.9,744.8,156.6,746.2,159.5z"/>
			<path class="st1" d="M839.6,152.1c0,4,0.1,7.4,0.2,10c0.1,2.7,0.6,4.8,1.3,6.4c0.7,1.6,1.9,2.8,3.5,3.5c1.6,0.7,3.9,1,6.8,1v5.9
				h-38.8v-5.5l1.3-0.4c2.6,0,4.6-0.3,6-1c1.4-0.7,2.4-1.9,3.1-3.5c0.7-1.6,1.1-3.8,1.2-6.4c0.1-2.7,0.2-6,0.2-10v-37
				c0-10.7,3.3-19.1,9.9-25.2c6.6-6.2,16.1-9.2,28.6-9.2c5.9,0,11.1,0.8,15.7,2.4c4.6,1.6,8.6,3.9,11.8,6.9c3.2,3,5.7,6.6,7.3,10.8
				c1.7,4.2,2.5,9,2.5,14.4v37c0,4,0.1,7.4,0.2,10c0.1,2.7,0.5,4.8,1.2,6.4c0.7,1.6,1.7,2.8,3.1,3.5c1.4,0.7,3.4,1,6,1h1.3v5.9
				h-38.8V173c2.9,0,5.1-0.3,6.8-1c1.6-0.7,2.8-1.9,3.5-3.5c0.7-1.6,1.2-3.8,1.3-6.4c0.1-2.7,0.2-6,0.2-10v-41c0-4.4-0.7-8-2-11
				c-1.4-3-3.1-5.3-5.3-7.1c-2.2-1.7-4.7-3-7.4-3.7c-2.8-0.7-5.5-1-8.2-0.9c-2.7-0.1-5.4,0.2-8.1,1c-2.7,0.7-5.2,2-7.3,3.7
				c-2.2,1.7-4,4.1-5.3,7c-1.4,2.9-2,6.6-2,10.9V152.1z"/>
		</g>
	</g>
	<g>
		<g>
			<g>
				<path class="st0" d="M131.5,265.4c-5.4,0-9.7-4.4-9.7-9.8c0-5.3,4.4-9.7,9.7-9.6c5.4,0,9.7,4.3,9.7,9.7
					C141.2,261.1,136.9,265.4,131.5,265.4z M131.6,262.4c3.7,0,6.7-3,6.7-6.7c0-3.8-3.1-6.8-6.9-6.7c-3.6,0.1-6.6,3.1-6.5,6.8
					C124.9,259.5,127.9,262.5,131.6,262.4z"/>
				<path class="st0" d="M128.3,254.3c0.4,0,0.8,0,1.2,0c0.4,0,0.7-0.1,0.8-0.6c0.2-0.8,0.5-1.6,0.8-2.4c0.1-0.2,0.3-0.4,0.4-0.6
					c0.2,0.2,0.4,0.4,0.5,0.6c0.3,0.8,0.5,1.5,0.8,2.3c0.1,0.4,0.3,0.6,0.8,0.6c0.9,0,1.7,0,2.6,0c0.2,0,0.4,0.1,0.5,0.2
					c-0.1,0.2-0.2,0.4-0.3,0.5c-0.7,0.5-1.4,1.1-2.1,1.6c-0.3,0.2-0.4,0.5-0.3,0.8c0.3,0.8,0.6,1.7,0.8,2.5c0,0.2,0,0.4-0.1,0.5
					c-0.2,0-0.4,0-0.6-0.1c-0.7-0.5-1.4-0.9-2.1-1.5c-0.4-0.3-0.8-0.3-1.2,0c-0.6,0.5-1.3,1-2,1.5c-0.1,0.1-0.3,0.1-0.5,0.1
					c0-0.2-0.1-0.4-0.1-0.6c0.2-0.9,0.5-1.7,0.8-2.5c0.1-0.4,0-0.6-0.3-0.8c-0.7-0.5-1.4-1-2.1-1.6c-0.1-0.1-0.2-0.3-0.3-0.5
					c0.2-0.1,0.3-0.2,0.5-0.2C127.4,254.3,127.9,254.3,128.3,254.3C128.3,254.3,128.3,254.3,128.3,254.3z"/>
			</g>
		</g>
		<path class="st1" d="M131.8,29.4c0,0,41.6,32.6,92,45.3c0,0,10.7,85.6-24.9,126.3c-26.7,30.6-54.6,40.4-67.1,43.5
			c-12.5-3.1-40.3-12.9-67.1-43.5C29.1,160.2,39.8,74.6,39.8,74.6C90.1,62,131.8,29.4,131.8,29.4z"/>
		<g>
			<g>
				<g>
					<g>
						<path class="st0" d="M144.5,272.2C36.5,245.1,4.4,168.3,20.7,83.2l-1,0.8c-17,84.3,16.5,163.8,124.2,189.5
							C144.1,273.1,144.3,272.7,144.5,272.2z"/>
					</g>
					<g>
						<path class="st0" d="M92.6,236.6c5.3,5,7.4,10.3,1,14.1c0,2.4,0,1.5,0,3.9l-2.1-1.1c0.5-2,0.3-1.3,0.9-3.3
							C86.6,244.5,88.1,239.1,92.6,236.6z"/>
						<path class="st0" d="M82.2,229.9c6.1,6.5,4.3,11.4-0.5,13.8c-0.2,2.3-0.2,1.5-0.3,3.8l-1.9-1.2c0.7-1.9,0.4-1.2,1.2-3.2
							C75.7,237.5,77.3,232.1,82.2,229.9z"/>
						<path class="st0" d="M72.6,222.4c5.2,6.5,3.1,11.3-1.9,13.5c-0.4,2.2-0.3,1.4-0.7,3.6l-1.7-1.3c0.5-1.2,0.9-2,1.4-3
							C65,228.2,68.8,223.9,72.6,222.4z"/>
						<path class="st0" d="M63.9,214.1c3.1,5.3,3.7,10.6-3.2,13.1c-0.5,1.4-0.4,1.1-1,3.5c-1.2-1-1.3-1.2-1.5-1.3
							c1-1.8,0.7-1.1,1.7-2.9C56.4,220.2,59.4,215.6,63.9,214.1z"/>
						<path class="st0" d="M56.2,205.3c2.7,5.3,2.4,10.6-4.3,12.6c-0.9,2.1-0.6,1.3-1.4,3.4l-1.3-1.4c1.1-1.7,0.7-1.1,1.9-2.7
							C48.2,210.6,51.9,206.4,56.2,205.3z"/>
						<path class="st0" d="M49.4,195.8c2.3,5.2,1.4,10.5-5.2,12.1c-1,2-0.6,1.3-1.6,3.2l-1.1-1.4c0.8-1,1.3-1.7,2.1-2.6
							C41.4,200.3,45.4,196.7,49.4,195.8z"/>
						<path class="st0" d="M43.6,185.8c1.7,5.3,0.5,10.3-6,11.7c-1.2,2-1,1.6-1.8,3.1c-0.6-0.9-0.4-0.6-0.9-1.4
							c1.3-1.5,0.9-0.9,2.2-2.4C35.4,189.9,40,186.5,43.6,185.8z"/>
						<path class="st0" d="M38.8,175.5c1.8,6.8-1.8,10.4-6.6,11.2c-1.2,1.8-0.8,1.2-2,2.9l-0.8-1.4c1.4-1.4,0.9-0.9,2.3-2.3
							C30.6,179.1,35.4,176,38.8,175.5z"/>
						<path class="st0" d="M34.8,164.8c0.9,5.1-0.8,9.9-7.1,10.7c-1.3,1.7-0.8,1.1-2.1,2.8c-0.4-0.8-0.5-1.1-0.7-1.4
							c1.4-1.3,0.9-0.8,2.4-2.2C26.8,168.1,31.4,165.2,34.8,164.8z"/>
						<path class="st0" d="M31.7,153.9c0.6,5-1.4,9.6-7.5,10.3l-2.2,2.7l-0.5-1.4l2.4-2.1C23.9,157,28.4,154.2,31.7,153.9z"/>
						<path class="st0" d="M29.4,142.8c0.4,6.7-3.6,9.5-7.7,9.9c-1.7,1.9-1.5,1.6-2.3,2.6c-0.3-0.8-0.2-0.5-0.4-1.4l2.5-2
							C21.6,146.1,25.8,143.1,29.4,142.8z"/>
						<path class="st0" d="M27.9,131.5c0.1,4.7-2,9-7.9,9.6c-1.4,1.5-0.9,1-2.3,2.5l-0.4-1.3c1.5-1.2,1-0.8,2.5-1.9
							C20.3,134.3,24.8,131.8,27.9,131.5z"/>
						<path class="st0" d="M27,120.2c-0.1,4.6-2.3,8.8-8,9.3l-2.3,2.4l-0.3-1.3l2.4-1.8C19.7,122.8,24.1,120.4,27,120.2z"/>
						<path class="st0" d="M26.9,108.8c-0.2,4.4-2.6,8.5-8,9l-2.3,2.3l-0.2-1.2l2.4-1.8C19.7,111.4,24,109,26.9,108.8z"/>
						<path class="st0" d="M27.4,97.3c-0.3,4.3-2.8,8.2-8,8.7l-2.3,2.2l-0.2-1.2c1.5-1,1-0.7,2.4-1.7C20.4,99.7,24.7,97.5,27.4,97.3
							z"/>
						<path class="st0" d="M28.5,85.9c-0.4,4.1-3,7.9-8,8.4c-1.4,1.3-0.9,0.8-2.3,2.2c-0.1-0.7-0.1-0.5-0.2-1.1l2.4-1.7
							C21.6,88.4,25.9,86.1,28.5,85.9z"/>
						<path class="st0" d="M30.4,74.6c-0.8,5.2-4.4,7.7-8,8.1l-2.3,2.1l-0.1-1.1c1.4-1,0.9-0.7,2.3-1.6
							C23.5,77.2,27.6,74.8,30.4,74.6z"/>
					</g>
					<g>
						<path class="st0" d="M66.5,256.6c8.1,4.1,16.6,4.7,19.7-1.7c2.9-0.7,1.9-0.5,4.8-1.2l-2.1-1.1c-1.5,0.6-2.5,1.1-4,1.6
							C75.1,251,68.5,253.3,66.5,256.6z"/>
						<path class="st0" d="M54.6,247.2c9.8,6,16.6,4.3,19.4,0c2-0.3,2.8-0.4,4.9-0.8l-1.9-1.2c-1.3,0.4-2.2,0.7-4.1,1.2
							C63.7,242.5,57,244.2,54.6,247.2z"/>
						<path class="st0" d="M44,236.9c6.2,4.9,14.2,6.9,18.9,1.6c3-0.2,2.5-0.1,4.8-0.3c-1-0.8-0.7-0.5-1.6-1.4
							c-2.5,0.5-1.6,0.3-4.1,0.8C52.9,233,46.5,234.5,44,236.9z"/>
						<path class="st0" d="M34.8,226.1c5.3,5.3,12.9,7.7,18.1,3.1c2.9,0.1,1.8,0.1,4.7,0.1l-1.4-1.4c-2.5,0.3-1.7,0.2-4.1,0.5
							C43.4,223,37.5,224,34.8,226.1z"/>
						<path class="st0" d="M26.9,214.7c6.3,7.3,12.9,7.4,17.1,4.4c2.8,0.3,1.8,0.2,4.6,0.5l-1.1-1.5c-2.8,0.1-2.4,0.1-4.1,0.1
							C36.5,212.7,30,212.8,26.9,214.7z"/>
						<path class="st0" d="M20.5,202.9c4.9,7,11.3,8.3,16.1,5.6c2.9,0.6,2.4,0.5,4.4,0.9c-0.6-0.9-0.4-0.6-0.9-1.5
							c-2.4-0.1-1.6-0.1-4-0.3C30.2,202,23.9,201.3,20.5,202.9z"/>
						<path class="st0" d="M15.3,191c4.2,7.5,10.4,8.6,14.9,6.6c2.5,0.7,1.6,0.5,4.2,1.2l-0.7-1.5c-2.4-0.3-1.5-0.2-3.8-0.6
							C24.4,190.3,18.4,189.8,15.3,191z"/>
						<path class="st0" d="M11.3,178.8c2.1,5.3,7.3,9.5,13.8,7.4c1.8,0.7,1.3,0.5,3.9,1.5c0-0.1-0.5-1.4-0.5-1.5
							c-2.2-0.5-1.4-0.3-3.6-0.8C20.6,179.2,14.7,177.9,11.3,178.8z"/>
						<path class="st0" d="M8.5,166.6c2.4,7.3,7.9,9.2,12.6,8.1c2.2,1,1.4,0.7,3.6,1.7l-0.3-1.5c-2.1-0.6-1.4-0.4-3.5-1.1
							C17.1,167.5,12,166,8.5,166.6z"/>
						<path class="st0" d="M6.6,154.4c1.2,5.4,5.1,9.6,11.4,8.6c2,1.2,1.3,0.8,3.3,1.9c-0.2-1.4-0.1-1.2-0.2-1.4l-3.2-1.3
							C15.2,156,9.9,154,6.6,154.4z"/>
						<path class="st0" d="M5.6,142.1c1,7,5.8,9.4,10.3,9l3.1,2.1l0-1.4l-3-1.5C13.8,144.3,8.8,142,5.6,142.1z"/>
						<path class="st0" d="M5.5,129.9c0.4,6.8,4.8,9.4,9.1,9.4l2.8,2.2l0.1-1.3l-2.8-1.6C13.1,132.5,8.6,130.1,5.5,129.9z"/>
						<path class="st0" d="M6.1,117.8c-0.2,6.6,4,9.4,8,9.6c1.5,1.4,1,0.9,2.5,2.3c0.1-0.8,0.1-1,0.2-1.3l-2.5-1.7
							C13.2,120.7,9,118.1,6.1,117.8z"/>
						<path class="st0" d="M7.4,105.8c-0.7,6.3,3.1,9.3,7,9.8c1.3,1.5,0.9,1,2.2,2.4l0.3-1.2l-2.3-1.8
							C14.1,109.1,10.2,106.3,7.4,105.8z"/>
						<path class="st0" d="M9.4,93.8c-0.9,4.4,0.8,8.8,5.9,9.9c1.2,1.5,0.7,0.9,1.9,2.4l0.4-1.2l-2.1-1.9
							C15.6,97.5,12.1,94.5,9.4,93.8z"/>
						<path class="st0" d="M12.3,82c-1.4,4.2-0.2,8.4,4.3,10.1c0.4,0.6,0.6,1.1,1.5,2.5l0.5-1c-1-1.2-0.7-0.8-1.7-2.1
							C17.5,86.3,14.6,83,12.3,82z"/>
						<path class="st0" d="M18.5,70c-3.1,4.4-2.3,8.8,0.6,11.7c0.3,1.9,0.2,1.2,0.6,3.1l0.7-0.8c-0.6-1.7-0.4-1.1-0.9-2.7
							C21.4,77,20.6,72.7,18.5,70z"/>
					</g>
				</g>
				<g>
					<g>
						<path class="st0" d="M119,272.2c108-27.1,140.1-103.9,123.8-189l1,0.8c17,84.3-16.5,163.8-124.2,189.5
							C119.5,273.1,119.2,272.7,119,272.2z"/>
					</g>
					<g>
						<path class="st0" d="M170.9,236.6c-5.3,5-7.4,10.3-1,14.1c0,2.4,0,1.5,0,3.9l2.1-1.1c-0.5-2-0.3-1.3-0.9-3.3
							C176.9,244.5,175.4,239.1,170.9,236.6z"/>
						<path class="st0" d="M181.3,229.9c-6.1,6.5-4.3,11.4,0.5,13.8c0.2,2.3,0.2,1.5,0.3,3.8l1.9-1.2c-0.7-1.9-0.4-1.2-1.2-3.2
							C187.8,237.5,186.2,232.1,181.3,229.9z"/>
						<path class="st0" d="M191,222.4c-5.2,6.5-3.1,11.3,1.9,13.5c0.4,2.2,0.3,1.4,0.7,3.6l1.7-1.3c-0.5-1.2-0.9-2-1.4-3
							C198.5,228.2,194.7,223.9,191,222.4z"/>
						<path class="st0" d="M199.6,214.1c-3.1,5.3-3.7,10.6,3.2,13.1c0.5,1.4,0.4,1.1,1,3.5c1.2-1,1.3-1.2,1.5-1.3
							c-1-1.8-0.7-1.1-1.7-2.9C207.1,220.2,204.1,215.6,199.6,214.1z"/>
						<path class="st0" d="M207.4,205.3c-2.7,5.3-2.4,10.6,4.3,12.6c0.9,2.1,0.6,1.3,1.4,3.4l1.3-1.4c-1.1-1.7-0.7-1.1-1.9-2.7
							C215.3,210.6,211.6,206.4,207.4,205.3z"/>
						<path class="st0" d="M214.1,195.8c-2.3,5.2-1.4,10.5,5.2,12.1c1,2,0.6,1.3,1.6,3.2l1.1-1.4c-0.8-1-1.3-1.7-2.1-2.6
							C222.1,200.3,218.1,196.7,214.1,195.8z"/>
						<path class="st0" d="M219.9,185.8c-1.7,5.3-0.5,10.3,6,11.7c1.2,2,1,1.6,1.8,3.1c0.6-0.9,0.4-0.6,0.9-1.4
							c-1.3-1.5-0.9-0.9-2.2-2.4C228.1,189.9,223.5,186.5,219.9,185.8z"/>
						<path class="st0" d="M224.8,175.5c-1.8,6.8,1.8,10.4,6.6,11.2c1.2,1.8,0.8,1.2,2,2.9l0.8-1.4c-1.4-1.4-0.9-0.9-2.3-2.3
							C232.9,179.1,228.1,176,224.8,175.5z"/>
						<path class="st0" d="M228.7,164.8c-0.9,5.1,0.8,9.9,7.1,10.7c1.3,1.7,0.8,1.1,2.1,2.8c0.4-0.8,0.5-1.1,0.7-1.4
							c-1.4-1.3-0.9-0.8-2.4-2.2C236.7,168.1,232.1,165.2,228.7,164.8z"/>
						<path class="st0" d="M231.8,153.9c-0.6,5,1.4,9.6,7.5,10.3l2.2,2.7l0.5-1.4l-2.4-2.1C239.7,157,235.1,154.2,231.8,153.9z"/>
						<path class="st0" d="M234.1,142.8c-0.4,6.7,3.6,9.5,7.7,9.9c1.7,1.9,1.5,1.6,2.3,2.6c0.3-0.8,0.2-0.5,0.4-1.4l-2.5-2
							C241.9,146.1,237.7,143.1,234.1,142.8z"/>
						<path class="st0" d="M235.6,131.5c-0.1,4.7,2,9,7.9,9.6c1.4,1.5,0.9,1,2.3,2.5l0.4-1.3c-1.5-1.2-1-0.8-2.5-1.9
							C243.2,134.3,238.8,131.8,235.6,131.5z"/>
						<path class="st0" d="M236.5,120.2c0.1,4.6,2.3,8.8,8,9.3l2.3,2.4l0.3-1.3l-2.4-1.8C243.8,122.8,239.4,120.4,236.5,120.2z"/>
						<path class="st0" d="M236.6,108.8c0.2,4.4,2.6,8.5,8,9l2.3,2.3l0.2-1.2l-2.4-1.8C243.8,111.4,239.5,109,236.6,108.8z"/>
						<path class="st0" d="M236.1,97.3c0.3,4.3,2.8,8.2,8,8.7l2.3,2.2l0.2-1.2c-1.5-1-1-0.7-2.4-1.7
							C243.2,99.7,238.8,97.5,236.1,97.3z"/>
						<path class="st0" d="M235,85.9c0.4,4.1,3,7.9,8,8.4c1.4,1.3,0.9,0.8,2.3,2.2c0.1-0.7,0.1-0.5,0.2-1.1l-2.4-1.7
							C241.9,88.4,237.6,86.1,235,85.9z"/>
						<path class="st0" d="M233.1,74.6c0.8,5.2,4.4,7.7,8,8.1l2.3,2.1l0.1-1.1c-1.4-1-0.9-0.7-2.3-1.6
							C240,77.2,235.9,74.8,233.1,74.6z"/>
					</g>
					<g>
						<path class="st0" d="M197,256.6c-8.1,4.1-16.6,4.7-19.7-1.7c-2.9-0.7-1.9-0.5-4.8-1.2l2.1-1.1c1.5,0.6,2.5,1.1,4,1.6
							C188.4,251,195.1,253.3,197,256.6z"/>
						<path class="st0" d="M208.9,247.2c-9.8,6-16.6,4.3-19.4,0c-2-0.3-2.8-0.4-4.9-0.8l1.9-1.2c1.3,0.4,2.2,0.7,4.1,1.2
							C199.8,242.5,206.6,244.2,208.9,247.2z"/>
						<path class="st0" d="M219.5,236.9c-6.2,4.9-14.2,6.9-18.9,1.6c-3-0.2-2.5-0.1-4.8-0.3c1-0.8,0.7-0.5,1.6-1.4
							c2.5,0.5,1.6,0.3,4.1,0.8C210.6,233,217.1,234.5,219.5,236.9z"/>
						<path class="st0" d="M228.7,226.1c-5.3,5.3-12.9,7.7-18.1,3.1c-2.9,0.1-1.8,0.1-4.7,0.1l1.4-1.4c2.5,0.3,1.7,0.2,4.1,0.5
							C220.1,223,226,224,228.7,226.1z"/>
						<path class="st0" d="M236.6,214.7c-6.3,7.3-12.9,7.4-17.1,4.4c-2.8,0.3-1.8,0.2-4.6,0.5l1.1-1.5c2.8,0.1,2.4,0.1,4.1,0.1
							C227,212.7,233.5,212.8,236.6,214.7z"/>
						<path class="st0" d="M243,202.9c-4.9,7-11.3,8.3-16.1,5.6c-2.9,0.6-2.4,0.5-4.4,0.9c0.6-0.9,0.4-0.6,0.9-1.5
							c2.4-0.1,1.6-0.1,4-0.3C233.3,202,239.6,201.3,243,202.9z"/>
						<path class="st0" d="M248.2,191c-4.2,7.5-10.4,8.6-14.9,6.6c-2.5,0.7-1.6,0.5-4.2,1.2l0.7-1.5c2.4-0.3,1.5-0.2,3.8-0.6
							C239.1,190.3,245.1,189.8,248.2,191z"/>
						<path class="st0" d="M252.2,178.8c-2.1,5.3-7.3,9.5-13.8,7.4c-1.8,0.7-1.3,0.5-3.9,1.5c0-0.1,0.5-1.4,0.5-1.5
							c2.2-0.5,1.4-0.3,3.6-0.8C242.9,179.2,248.8,177.9,252.2,178.8z"/>
						<path class="st0" d="M255.1,166.6c-2.4,7.3-7.9,9.2-12.6,8.1c-2.2,1-1.4,0.7-3.6,1.7l0.3-1.5c2.1-0.6,1.4-0.4,3.5-1.1
							C246.4,167.5,251.6,166,255.1,166.6z"/>
						<path class="st0" d="M256.9,154.4c-1.2,5.4-5.1,9.6-11.4,8.6c-2,1.2-1.3,0.8-3.3,1.9c0.2-1.4,0.1-1.2,0.2-1.4l3.2-1.3
							C248.4,156,253.6,154,256.9,154.4z"/>
						<path class="st0" d="M257.9,142.1c-1,7-5.8,9.4-10.3,9l-3.1,2.1l0-1.4l3-1.5C249.7,144.3,254.7,142,257.9,142.1z"/>
						<path class="st0" d="M258.1,129.9c-0.4,6.8-4.8,9.4-9.1,9.4l-2.8,2.2l-0.1-1.3l2.8-1.6C250.4,132.5,254.9,130.1,258.1,129.9z"
							/>
						<path class="st0" d="M257.4,117.8c0.2,6.6-4,9.4-8,9.6c-1.5,1.4-1,0.9-2.5,2.3c-0.1-0.8-0.1-1-0.2-1.3l2.5-1.7
							C250.3,120.7,254.5,118.1,257.4,117.8z"/>
						<path class="st0" d="M256.1,105.8c0.7,6.3-3.1,9.3-7,9.8c-1.3,1.5-0.9,1-2.2,2.4l-0.3-1.2l2.3-1.8
							C249.4,109.1,253.3,106.3,256.1,105.8z"/>
						<path class="st0" d="M254.1,93.8c0.9,4.4-0.8,8.8-5.9,9.9c-1.2,1.5-0.7,0.9-1.9,2.4l-0.4-1.2l2.1-1.9
							C247.9,97.5,251.4,94.5,254.1,93.8z"/>
						<path class="st0" d="M251.3,82c1.4,4.2,0.2,8.4-4.3,10.1c-0.4,0.6-0.6,1.1-1.5,2.5l-0.5-1c1-1.2,0.7-0.8,1.7-2.1
							C246,86.3,248.9,83,251.3,82z"/>
						<path class="st0" d="M245,70c3.1,4.4,2.3,8.8-0.6,11.7c-0.3,1.9-0.2,1.2-0.6,3.1l-0.7-0.8c0.6-1.7,0.4-1.1,0.9-2.7
							C242.1,77,242.9,72.7,245,70z"/>
					</g>
				</g>
			</g>
		</g>
		<polygon class="st1" points="130.8,3.1 134.6,10.6 142.9,11.8 136.9,17.7 138.3,26 130.8,22.1 123.4,26 124.8,17.7 118.8,11.8 
			127.1,10.6 		"/>
		<polygon class="st1" points="163.6,19.3 166.8,25.7 173.9,26.7 168.7,31.7 170,38.8 163.6,35.4 157.3,38.8 158.5,31.7 153.4,26.7 
			160.5,25.7 		"/>
		<polygon class="st1" points="189.9,37.4 192.3,42.3 197.7,43.1 193.8,46.9 194.7,52.3 189.9,49.7 185.1,52.3 186,46.9 182.1,43.1 
			187.5,42.3 		"/>
		<polygon class="st1" points="99.9,19.3 96.7,25.7 89.6,26.7 94.8,31.7 93.6,38.8 99.9,35.4 106.2,38.8 105,31.7 110.1,26.7 
			103,25.7 		"/>
		<polygon class="st1" points="73.6,37.4 71.2,42.3 65.8,43.1 69.7,46.9 68.8,52.3 73.6,49.7 78.4,52.3 77.5,46.9 81.4,43.1 
			76,42.3 		"/>
		<g>
			
				<image style="overflow:visible;" width="873" height="933" xlink:href="D75A9708.html"  transform="matrix(0.24 0 0 0.24 28.3867 25.2933)">
			</image>
		</g>
		<g>
			<polygon class="st2" points="60,94 133.1,136 133.1,216.7 60,176.4 			"/>
			<polygon class="st3" points="206.2,94 133.1,136 133.1,216.7 206.2,176.4 			"/>
			<polygon class="st0" points="60,94 133.1,136 206.2,94 131.4,55 			"/>
		</g>
		<g>
			<path class="st4" d="M69.8,159.3l-3.3-1.9l-0.1,2.1l3.9,2.3l-0.1,1.3l-5.6-3.3L65,152l5.6,3.2l-0.1,1.3l-3.8-2.3l-0.1,1.8
				l3.3,1.9L69.8,159.3z"/>
			<path class="st4" d="M74.4,160.3l1.7-1.8l2,1.2l-2.6,2.4l2.3,5.4l-2-1.2l-1.5-3.7l-1.7,1.8l-2-1.2l2.7-2.5l-2.2-5.2l2,1.2
				L74.4,160.3z"/>
			<path class="st4" d="M85.2,169.2c-0.1,0.8-0.5,1.3-1.1,1.4c-0.6,0.1-1.4-0.1-2.4-0.7c-1.1-0.6-1.9-1.5-2.5-2.5
				c-0.6-1-0.9-2.1-0.8-3.3l0-0.5c0-0.7,0.2-1.3,0.5-1.7c0.3-0.4,0.7-0.6,1.3-0.6c0.5,0,1.2,0.2,1.8,0.6c1,0.6,1.7,1.3,2.3,2.1
				c0.6,0.8,0.9,1.7,0.9,2.6l-1.7-1c0-0.5-0.2-1-0.4-1.4c-0.2-0.4-0.6-0.7-1.2-1c-0.6-0.3-1-0.4-1.3-0.2c-0.3,0.2-0.5,0.7-0.5,1.5
				l0,0.6c0,0.8,0.1,1.5,0.3,2.1c0.3,0.6,0.7,1,1.3,1.3c0.5,0.3,0.9,0.4,1.2,0.4c0.3-0.1,0.4-0.3,0.5-0.8L85.2,169.2z"/>
			<path class="st4" d="M91.4,172l-3.3-1.9l-0.1,2.1l3.9,2.3l0,1.3l-5.6-3.3l0.3-7.8l5.6,3.3l0,1.3l-3.9-2.3l-0.1,1.9l3.3,1.9
				L91.4,172z"/>
			<path class="st4" d="M94.7,176.1l3.7,2.2l0,1.3l-5.4-3.2l0.3-7.8l1.7,1L94.7,176.1z"/>
			<path class="st4" d="M104.5,179.7l-3.3-2l-0.1,2.1l3.9,2.3l0,1.3l-5.7-3.3l0.2-7.9l5.6,3.3l0,1.3l-3.9-2.3l-0.1,1.9l3.3,2
				L104.5,179.7z"/>
			<path class="st4" d="M112.9,188.1l-1.7-1l-3.3-7.2l-0.1,5.2l-1.7-1l0.2-7.9l1.7,1l3.3,7.2l0.1-5.2l1.7,1L112.9,188.1z"/>
			<path class="st4" d="M121.1,190.2c-0.1,0.8-0.4,1.3-1,1.4c-0.6,0.1-1.4-0.1-2.4-0.7c-1.1-0.6-1.9-1.5-2.5-2.5
				c-0.6-1.1-0.9-2.2-0.9-3.4l0-0.5c0-0.8,0.2-1.3,0.5-1.8c0.3-0.4,0.7-0.6,1.3-0.6c0.5,0,1.2,0.2,1.9,0.6c1,0.6,1.8,1.3,2.3,2.1
				c0.6,0.8,0.9,1.7,1,2.7l-1.7-1c0-0.5-0.2-1-0.4-1.4c-0.3-0.4-0.7-0.7-1.2-1c-0.6-0.3-1-0.4-1.3-0.2c-0.3,0.2-0.5,0.7-0.5,1.6
				l0,0.6c0,0.9,0.1,1.6,0.4,2.1c0.3,0.6,0.7,1,1.3,1.4c0.5,0.3,0.9,0.4,1.2,0.4c0.3-0.1,0.4-0.3,0.5-0.8L121.1,190.2z"/>
			<path class="st4" d="M127.4,193.1l-3.4-2l0,2.1l4,2.3l0,1.3l-5.7-3.4l0.1-8l5.7,3.3l0,1.3l-3.9-2.3l0,1.9l3.4,2L127.4,193.1z"/>
		</g>
		<g>
			<path class="st4" d="M156.8,188c0-0.4,0-0.6-0.2-0.7c-0.2-0.1-0.6-0.1-1.1,0c-0.5,0.1-0.9,0.1-1.2,0c-0.8-0.1-1.2-0.7-1.1-1.6
				c0-0.5,0.2-1,0.5-1.5c0.3-0.5,0.6-1,1.1-1.5c0.4-0.5,0.9-0.8,1.5-1.1c0.5-0.3,1-0.4,1.4-0.4c0.4,0,0.7,0.2,0.9,0.5
				c0.2,0.3,0.3,0.7,0.2,1.3l-1.6,0.8c0-0.4,0-0.7-0.2-0.8c-0.2-0.1-0.5-0.1-0.9,0.1c-0.4,0.2-0.7,0.5-0.9,0.8
				c-0.2,0.3-0.4,0.6-0.4,0.9c0,0.3,0.1,0.5,0.3,0.6c0.2,0.1,0.6,0.1,1,0c0.9-0.1,1.5-0.1,1.9,0.2c0.4,0.3,0.5,0.8,0.5,1.5
				c-0.1,0.8-0.4,1.6-0.9,2.3c-0.5,0.7-1.2,1.3-2.1,1.7c-0.6,0.3-1.1,0.4-1.6,0.4c-0.5,0-0.8-0.2-1-0.5c-0.2-0.3-0.3-0.8-0.2-1.4
				l1.6-0.8c-0.1,1,0.4,1.3,1.4,0.8c0.4-0.2,0.7-0.4,0.9-0.7C156.6,188.7,156.7,188.4,156.8,188z"/>
			<path class="st4" d="M162,184l-0.9,1.5l-0.2,2.7l-1.6,0.8l0.8-9.4l1.6-0.9l-0.4,4.3l0.8-1.6l2.3-4.2l2-1.1l-3.2,5.7l2.5,3.8l-2,1
				L162,184z"/>
			<path class="st4" d="M168,184.5l-1.7,0.9l0.8-9.5l1.7-0.9L168,184.5z"/>
			<path class="st4" d="M171.4,181.2l3.6-1.9l-0.1,1.6l-5.3,2.8l0.8-9.6l1.7-0.9L171.4,181.2z"/>
			<path class="st4" d="M177.8,177.9l3.7-2l-0.1,1.6l-5.5,2.9l0.7-9.7l1.7-0.9L177.8,177.9z"/>
			<path class="st4" d="M187.2,172.1c0-0.4-0.1-0.6-0.3-0.7c-0.2-0.1-0.6-0.1-1.3,0c-0.6,0.1-1.1,0.1-1.4,0.1
				c-0.9-0.1-1.4-0.6-1.3-1.7c0-0.5,0.2-1.1,0.5-1.6c0.3-0.6,0.7-1.1,1.2-1.6c0.5-0.5,1.1-0.9,1.7-1.3c0.6-0.3,1.2-0.5,1.7-0.5
				c0.5,0,0.8,0.1,1.1,0.5c0.2,0.3,0.3,0.8,0.3,1.4l-1.8,1c0-0.5-0.1-0.7-0.3-0.9c-0.2-0.1-0.6,0-1,0.2c-0.4,0.2-0.8,0.5-1,0.9
				c-0.3,0.3-0.4,0.7-0.4,1c0,0.3,0.1,0.5,0.4,0.6c0.3,0.1,0.7,0,1.2-0.1c1-0.2,1.7-0.2,2.2,0.1c0.4,0.3,0.6,0.8,0.6,1.6
				c-0.1,0.9-0.4,1.7-1,2.5c-0.6,0.8-1.4,1.4-2.4,2c-0.7,0.4-1.3,0.5-1.8,0.5c-0.5,0-0.9-0.2-1.2-0.5c-0.3-0.3-0.4-0.8-0.3-1.5
				l1.8-0.9c-0.1,1.1,0.5,1.3,1.6,0.7c0.4-0.2,0.8-0.5,1-0.8C187,172.7,187.1,172.4,187.2,172.1z"/>
		</g>
		<g>
			<g class="st5">
				<defs>
					<polygon id="SVGID_1_" class="st5" points="108.7,85 134.3,72.8 177.5,89.7 151.9,101.9 					"/>
				</defs>
				<clipPath id="SVGID_2_">
					<use xlink:href="#SVGID_1_"  style="overflow:visible;"/>
				</clipPath>
				<g class="st6">
					<path class="st4" d="M151.5,79.6c-0.2-0.1-0.4-0.2-0.6-0.2c-0.2-0.1-0.4-0.2-0.6-0.2c-0.4-0.2-0.8-0.3-1.2-0.5
						c-0.7-0.3-1.1-0.3-1.7-0.1c-1.1,0.3-2.3,0.4-3.7,0.3c-1-0.1-2-0.3-2.9-0.5c-0.4-0.1-0.8-0.2-1.1-0.3c-0.7-0.3-1.2-0.6-1.5-1
						c-0.1-0.2-0.3-0.3-0.5-0.4c-0.2-0.1-0.5-0.1-1-0.1c-1,0-2,0-3.1,0c-0.8,0-1.1,0.1-1.2,0.5c-0.1,0.4-0.4,0.8-1.1,1.1
						c-0.8,0.3-1.6,0.4-2.5,0.6c-1.6,0.3-3.2,0.3-4.8-0.2c-0.7-0.2-1.1-0.1-1.6,0.1c-0.6,0.3-1.2,0.6-1.7,0.8
						c-0.8,0.4-0.8,0.5,0,0.9c1,0.6,1.3,1.2,0.8,1.9c-0.1,0.2-0.2,0.3-0.4,0.5c-0.5,0.7-1.6,1.2-3.3,1.3c-0.8,0.1-1,0.2-0.9,0.5
						c0.1,0.4,0.2,0.8,0.3,1.2c0.1,0.2,0.2,0.4,0.4,0.5c0.2,0.1,0.5,0.1,0.9,0.2c1,0.1,1.8,0.3,2.5,0.6c0.4,0.2,0.8,0.4,1.2,0.6
						c0.3,0.2,0.5,0.4,0.8,0.6c0.9,0.7,0.9,1.4,0.1,2c-0.4,0.3-0.3,0.5,0.3,0.7c0.4,0.2,0.8,0.3,1.1,0.4c0.4,0.1,0.8,0.3,1.1,0.4
						c0.8,0.3,1.1,0.3,1.8,0.1c1.4-0.4,2.9-0.4,4.6-0.1c2.2,0.4,2.2,0.4,3.6-0.3l0,0c0.6-0.3,0.5-0.5-0.2-0.8c0,0,0,0,0,0
						c-0.9-0.4-1.9-0.7-2.8-1.1c-0.3-0.1-0.6-0.2-0.8-0.3c-1.1-0.4-2.2-0.8-3.1-1.3c-3.6-1.9-3.6-4.5-0.2-6.1
						c3.5-1.6,9.5-1.8,14.3-0.4c1.4,0.4,2.6,0.9,3.8,1.4l-0.1,0c1,0.4,2,0.8,3.1,1.2c0.7,0.3,1.3,0.3,1.8,0c0.3-0.1,0.5-0.3,0.8-0.4
						c0.4-0.2,0.5-0.4,0.2-0.7c-0.2-0.1-0.3-0.3-0.5-0.4c-1-0.7-1.1-1.4-0.2-2.1C152.2,80,152.1,79.8,151.5,79.6"/>
					<path class="st4" d="M165.1,92.9c-0.8-0.3-0.9-0.8-0.3-1.1c0.6-0.3,1.8-0.3,2.6,0c0,0,0,0,0,0c0.8,0.3,1,0.8,0.3,1.1
						C167.1,93.2,165.9,93.2,165.1,92.9C165.1,92.9,165.1,92.9,165.1,92.9 M168.7,91.1c-1.1-0.4-2.6-0.6-4-0.4c-0.4,0-0.7,0-1-0.1
						c-1.4-0.6-2.9-1.1-4.3-1.7c0,0,0,0-0.1,0c-0.7-0.3-1.4-0.4-2.3-0.4c-1.6,0-3.2,0-4.8,0c-0.5,0-1-0.1-1.4-0.2c0,0,0,0,0,0
						c-0.5-0.2-1.1-0.4-1.6-0.6c-1.1-0.4-2.2-0.8-3.2-1.3c-1.1-0.4-2.2-0.9-3.4-1.3c-0.6-0.2-1.1-0.4-1.7-0.7
						c-0.7-0.3-1.2-0.2-1.9,0.1c-0.6,0.3-0.7,0.5,0,0.8c1.2,0.5,2.4,0.9,3.5,1.4c2.4,0.9,4.7,1.8,7.1,2.8c0.6,0.2,1.3,0.3,2.2,0.4
						c1.7,0,3.3,0,5,0c0.4,0,0.9,0.1,1.3,0.2c0.5,0.2,1,0.4,1.5,0.6c0.3,0.1,0.5,0.2,0.8,0.3c0.3,0.1,0.5,0.2,0.8,0.3
						c0.3,0.1,0.5,0.2,0.8,0.3c0,0,0,0,0,0c0.3,0.1,0.4,0.2,0.3,0.4c-0.2,0.6,0.4,1.2,1.4,1.6c0.3,0.1,0.6,0.2,0.9,0.3
						c1.7,0.4,3.6,0.3,4.8-0.3c1.1-0.5,1.1-1.4,0-2C169.2,91.4,169,91.2,168.7,91.1"/>
					<path class="st4" d="M151.3,93.1c-0.8-0.3-0.9-0.8-0.3-1.1c0.6-0.3,1.8-0.3,2.7,0c0,0,0,0,0,0c0.8,0.3,1,0.8,0.3,1.1
						C153.3,93.4,152.1,93.4,151.3,93.1 M155,91.4c-1.1-0.4-2.6-0.6-4-0.4c-0.4,0-0.6,0-0.9-0.1c-1-0.4-2.1-0.8-3.1-1.2
						c-1-0.4-2.1-0.8-3.1-1.2c-1-0.4-2-0.8-3.1-1.2c-1-0.4-2.1-0.8-3.1-1.2c-0.3-0.1-0.9-0.2-1.1-0.2c-0.5,0.1-1,0.3-1.3,0.6
						c-0.2,0.2,0.2,0.4,0.6,0.5c0,0,0,0,0,0c4,1.6,8.1,3.2,12.1,4.7c0.3,0.1,0.5,0.2,0.4,0.4c-0.2,0.6,0.3,1.2,1.4,1.7
						c0.3,0.1,0.6,0.2,0.9,0.3c1.6,0.4,3.6,0.3,4.7-0.3c1.2-0.5,1.2-1.4,0.1-2.1C155.4,91.6,155.2,91.5,155,91.4"/>
					<path class="st4" d="M157.8,86.4c-0.8-0.3-0.9-0.8-0.3-1.1c0.6-0.3,1.8-0.3,2.6,0c0,0,0,0,0,0c0.8,0.3,0.9,0.8,0.3,1.1
						C159.8,86.7,158.6,86.7,157.8,86.4 M161.4,84.6c-0.8-0.3-1.7-0.5-2.8-0.5c-1.6,0-3,0.4-3.4,1c-0.1,0.2-0.4,0.2-0.8,0.2
						c-0.8,0-1.7,0-2.5,0c-0.4,0-1-0.1-1.3-0.2c-0.5-0.2-0.9-0.3-1.4-0.5c-0.6-0.2-1.1-0.4-1.7-0.7c-1-0.4-2-0.8-3-1.2
						c-0.8-0.3-1.3-0.3-2,0c-0.7,0.3-0.7,0.5,0.1,0.8c1.1,0.4,2.2,0.9,3.3,1.3s2.2,0.9,3.3,1.3c0,0,0,0,0,0c0.7,0.3,1.4,0.4,2.3,0.4
						c1.1,0,2.2,0,3.2-0.1c0.5,0,0.8,0,1.2,0.2c0.1,0,0.1,0,0.2,0.1c0.1,0,0.2,0.1,0.3,0.1c1.7,0.7,4.2,0.7,5.6,0
						c1-0.5,1.2-1.2,0.4-1.9C162.1,85,161.8,84.8,161.4,84.6"/>
					<path class="st4" d="M139.8,94.6C139.8,94.6,139.8,94.6,139.8,94.6c-0.8-0.3-0.9-0.8-0.3-1.1c0.7-0.3,1.9-0.3,2.7,0
						c0,0,0,0,0,0c0.8,0.3,0.9,0.8,0.2,1.1C141.8,94.9,140.6,94.9,139.8,94.6 M141.1,90.2C141.1,90.2,141.1,90.2,141.1,90.2
						c-0.6-0.2-1-0.4-1.5-0.6c-0.6-0.2-1.2-0.5-1.8-0.7c-0.8-0.3-1.5-0.6-2.3-0.9c-0.4-0.2-0.8-0.3-1.2-0.5
						c-0.8-0.3-1.2-0.3-1.9,0.1c-0.7,0.3-0.7,0.5,0.1,0.8c1.1,0.4,2.3,0.9,3.4,1.3c0.6,0.2,1.1,0.4,1.7,0.7c0.1,0.1,0.3,0.1,0.4,0.2
						c0.1,0,0.2,0.1,0.3,0.1c0.1,0.1,0.3,0.1,0.4,0.1c0.9,0.3,0.7,0.3,0.8,1.2c0,0.2-0.1,0.3-0.6,0.4c-1.6,0.3-2.3,1-1.8,1.8
						c0.2,0.4,0.7,0.7,1.4,0.9c0.7,0.3,1.6,0.5,2.5,0.5c1.8,0.1,3.4-0.3,3.9-1.1c0.4-0.6-0.2-1.4-1.4-1.8c-0.2-0.1-0.3-0.1-0.5-0.2
						c0,0-0.1,0-0.1,0c-0.2-0.1-0.3-0.2-0.4-0.3c-0.1-0.4-0.1-0.7-0.2-1.1C142.3,90.9,141.9,90.5,141.1,90.2"/>
				</g>
			</g>
		</g>
		<g>
			<g class="st5">
				<defs>
					<polygon id="SVGID_3_" class="st5" points="88.3,85.9 94.7,81.8 154.9,117.3 148.4,121.4 					"/>
				</defs>
				<clipPath id="SVGID_4_">
					<use xlink:href="#SVGID_3_"  style="overflow:visible;"/>
				</clipPath>
				<g class="st7">
					<polyline class="st4" points="100.1,85.1 94.6,81.9 93.6,82.5 95.6,83.7 90.4,87.1 91.7,87.9 97,84.5 99,85.7 100.1,85.1 					
						"/>
					<polyline class="st4" points="105.3,88.2 100.8,85.5 94.6,89.5 99,92.2 100.1,91.5 97,89.7 98.7,88.6 101.3,90.2 102.3,89.5 
						99.7,88 101.2,87 104.3,88.8 105.3,88.2 					"/>
					<path class="st4" d="M108.8,90.1c-0.6-0.3-1.2-0.5-1.8-0.6c-0.7-0.1-1.3-0.1-2,0.1c-0.7,0.2-1.3,0.4-1.9,0.8l-0.4,0.2
						c-0.9,0.6-1.4,1.2-1.5,1.9c-0.1,0.6,0.4,1.2,1.2,1.7c0.8,0.5,1.6,0.7,2.5,0.7c0.9,0,1.7-0.1,2.4-0.5l-1.4-0.8
						c-0.4,0.2-0.8,0.3-1.2,0.3c-0.4,0-0.8-0.1-1.2-0.4c-0.5-0.3-0.7-0.6-0.6-0.9c0.1-0.3,0.5-0.7,1.2-1.1l0.5-0.3
						c0.7-0.4,1.3-0.6,1.8-0.7c0.5-0.1,1,0,1.5,0.3c0.4,0.2,0.6,0.5,0.7,0.7c0,0.2-0.2,0.5-0.5,0.8l1.4,0.8c0.6-0.5,0.9-1,0.8-1.5
						C110,91.1,109.5,90.6,108.8,90.1"/>
					<polyline class="st4" points="117.7,95.5 116.3,94.7 113.8,96.3 111.1,94.7 113.6,93.1 112.2,92.3 106,96.3 107.3,97.1 
						110,95.4 112.7,96.9 110,98.7 111.4,99.5 117.7,95.5 					"/>
					<polyline class="st4" points="124.3,99.4 122.9,98.6 118.8,101.2 120.2,97 118.9,96.2 112.6,100.2 114,101 118.1,98.3 
						116.6,102.6 118,103.4 124.3,99.4 					"/>
					<path class="st4" d="M122.8,105c-0.5-0.3-0.6-0.6-0.5-1c0.1-0.4,0.5-0.8,1.1-1.2l0.3-0.2c0.7-0.4,1.3-0.7,1.9-0.7
						c0.6-0.1,1.1,0,1.6,0.3c0.5,0.3,0.7,0.6,0.6,1c-0.1,0.4-0.5,0.8-1.1,1.2l-0.3,0.2c-0.7,0.4-1.3,0.7-1.9,0.7
						C123.8,105.4,123.3,105.3,122.8,105 M128.2,101.6c-0.6-0.3-1.2-0.5-1.9-0.6c-0.7-0.1-1.4-0.1-2.1,0.1c-0.7,0.2-1.4,0.4-2,0.8
						l-0.3,0.2c-0.6,0.4-1,0.8-1.2,1.2c-0.2,0.4-0.2,0.9-0.1,1.3c0.2,0.4,0.6,0.8,1.1,1.1c0.6,0.3,1.2,0.5,1.9,0.6
						c0.7,0.1,1.4,0.1,2.1-0.1c0.7-0.2,1.4-0.4,2-0.8l0.3-0.2c0.6-0.4,1-0.8,1.3-1.2c0.2-0.4,0.3-0.9,0.1-1.3
						C129.1,102.3,128.8,101.9,128.2,101.6"/>
					<polyline class="st4" points="133.3,104.7 131.9,103.9 125.7,107.9 130,110.4 131,109.8 128.1,108 133.3,104.7 					"/>
					<path class="st4" d="M134.1,111.6c-0.5-0.3-0.6-0.6-0.5-1c0.1-0.4,0.5-0.8,1.1-1.2l0.3-0.2c0.7-0.4,1.3-0.7,1.9-0.7
						c0.6-0.1,1.1,0,1.6,0.3c0.5,0.3,0.7,0.6,0.6,1c-0.1,0.4-0.5,0.8-1.1,1.2l-0.3,0.2c-0.7,0.4-1.3,0.7-1.9,0.7
						C135.1,112,134.5,111.9,134.1,111.6 M139.5,108.2c-0.6-0.3-1.2-0.5-1.9-0.6c-0.7-0.1-1.4-0.1-2.1,0.1c-0.7,0.2-1.4,0.4-2,0.8
						l-0.3,0.2c-0.6,0.4-1,0.8-1.2,1.2c-0.2,0.4-0.2,0.9-0.1,1.3c0.2,0.4,0.6,0.8,1.1,1.1c0.6,0.3,1.2,0.5,1.9,0.6
						c0.7,0.1,1.4,0.1,2.1-0.1c0.7-0.2,1.4-0.4,2-0.8l0.3-0.2c0.6-0.4,1-0.8,1.3-1.2c0.2-0.4,0.3-0.9,0.1-1.3
						C140.4,108.9,140,108.5,139.5,108.2"/>
					<path class="st4" d="M145.9,112c-0.6-0.3-1.2-0.5-1.8-0.6c-0.7-0.1-1.3-0.1-2,0.1c-0.7,0.2-1.3,0.4-2,0.8l-0.4,0.3
						c-0.6,0.4-1,0.8-1.2,1.2c-0.2,0.4-0.2,0.8,0,1.2c0.2,0.4,0.6,0.8,1.2,1.1c0.5,0.3,1.1,0.6,1.7,0.7c0.6,0.2,1.2,0.2,1.7,0.2
						l2.5-1.6l-2.6-1.5l-1,0.6l1.3,0.7l-1.1,0.7c-0.4,0-0.9-0.2-1.4-0.5c-0.5-0.3-0.7-0.6-0.7-1c0.1-0.4,0.4-0.8,1.1-1.2l0.4-0.3
						c0.7-0.4,1.3-0.7,1.8-0.7c0.6-0.1,1.1,0,1.6,0.3c0.4,0.2,0.6,0.4,0.6,0.7c0,0.2-0.1,0.5-0.4,0.7l1.3,0.8c0.6-0.5,0.9-1,0.8-1.5
						C147.1,113,146.7,112.5,145.9,112"/>
					<polyline class="st4" points="154.8,117.3 153.3,116.5 149,117.4 150.5,114.8 149,113.9 147.2,117.8 144.9,119.2 146.3,120.1 
						148.6,118.6 154.8,117.3 					"/>
				</g>
			</g>
		</g>
		<g>
			<g class="st5">
				<defs>
					<polygon id="SVGID_5_" class="st5" points="86.4,160.4 87.4,119.7 111.8,130.7 110.8,171.4 					"/>
				</defs>
				<clipPath id="SVGID_6_">
					<use xlink:href="#SVGID_5_"  style="overflow:visible;"/>
				</clipPath>
				<g class="st8">
					<g>
						<defs>
							<polyline id="SVGID_7_" points="87.1,153.9 87.4,119.7 111.1,137.3 110.8,171.4 87.1,153.9 							"/>
						</defs>
						<clipPath id="SVGID_8_">
							<use xlink:href="#SVGID_7_"  style="overflow:visible;"/>
						</clipPath>
						<path class="st9" d="M100.7,158.2c-0.5-0.2-1.1-0.5-1.6-1l0,0c-4.4-3.3-8-11.2-8-17.5c0-5.7,2.8-8.3,6.6-6.6
							c0.5,0.2,1.1,0.6,1.6,1l0,0c4.5,3.3,8.1,11.1,8,17.6C107.3,157.3,104.5,159.9,100.7,158.2 M97,127.2c0,0-0.1,0-0.1,0
							c0.2,1.9-0.2,3-1.3,2.9c-0.2,0-0.3-0.1-0.5-0.1c-0.1-0.1-0.3-0.1-0.4-0.2c-0.8-0.6-1.4-1.7-1.9-3.1c-1.4,0.3-2.6,1.1-3.5,2.4
							c1.1,1.8,1.3,3.5,1,4.4c-0.3,1.1-0.9,1.3-1.6,1c-0.2-0.1-0.3-0.2-0.5-0.3c-0.2-0.1-0.4-0.3-0.6-0.5c-0.2,1-0.3,2.1-0.3,3.3
							l0,0c0,1.2,0.1,2.4,0.2,3.7c0.2,0.1,0.5,0.2,0.7,0.4c0.9,0.7,1.6,1.8,2,3.4c0.5,2,0,3-1,3.3c0.9,2.7,2,5.2,3.4,7.5
							c0.4-0.6,0.9-0.8,1.5-0.5c0.1,0.1,0.2,0.1,0.4,0.2c0.3,0.2,0.5,0.4,0.8,0.8c1.3,1.6,1.6,3.3,1.4,4.9c0.8,0.9,1.6,1.6,2.5,2.2
							l0,0c0.8,0.6,1.6,1,2.3,1.4c0,0,0.1,0,0.1,0.1c-0.2-1.9,0.1-3,1.3-2.9c0.2,0,0.4,0.1,0.6,0.2c0.1,0.1,0.3,0.1,0.4,0.2
							c0.8,0.6,1.4,1.7,1.9,3.1c1.4-0.3,2.6-1.1,3.5-2.4c-1.1-2.1-1.4-3.5-1-4.6c0.3-0.9,0.9-1.2,1.6-0.8c0.2,0.1,0.3,0.2,0.5,0.3
							c0.2,0.2,0.4,0.4,0.7,0.6c0,0,0,0,0,0l0.1-7c0,0,0,0,0,0c0,0-0.1,0-0.1,0c-0.2-0.1-0.4-0.2-0.6-0.3c-0.3-0.2-0.6-0.5-0.9-1
							c-0.5-0.7-0.9-1.5-1.1-2.4c-0.2-0.7-0.2-1.4-0.1-1.9c0.1-0.9,0.5-1.3,1.2-1.4c-0.9-2.7-2.1-5.2-3.5-7.6
							c-0.4,0.6-1,0.7-1.6,0.5c-0.1-0.1-0.3-0.1-0.4-0.2c-0.2-0.2-0.5-0.4-0.7-0.7c-1.3-1.6-1.7-3.3-1.4-5c-0.8-0.8-1.5-1.5-2.3-2.1
							l-0.4-0.3C98.5,127.9,97.7,127.5,97,127.2"/>
						<path class="st9" d="M99.2,136.3c-0.1-0.1-0.3,0-0.4,0.1c-0.6,0.4-1.2,0.8-1.8,1.2c-0.5,0.3-1,0.6-1.5,1
							c-0.1,0.1-0.1,0.2-0.2,0.4c0.1,0.1,0.2,0.3,0.3,0.4c0.1,0.1,0.2,0.2,0.3,0.3c0.2,0.1,0.3,0.2,0.4,0.3l0,0
							c0.5,0.3,0.7,0.9,0.7,1.6c0,0.4,0,0.9,0,1.3c0,0.6,0.2,1.1,0.7,1.5c0.2,0.1,0.3,0.2,0.5,0.3c0.3,0.2,0.6,0.5,0.9,0.7
							c0.3,0.2,0.6,0.5,0.9,0.7c0.2,0.1,0.3,0.2,0.5,0.3c0.1,0,0.1,0.1,0.2,0.1c0.3,0.1,0.5-0.1,0.5-0.6c0-0.4,0-0.9,0-1.3
							c0-0.5,0.2-0.7,0.5-0.6c0.1,0,0.1,0.1,0.2,0.1c0.2,0.1,0.3,0.3,0.5,0.4c0.1,0.1,0.3,0.2,0.4,0.3c0,0,0,0,0.1,0
							c0.2,0.1,0.2-0.1,0.1-0.4c0-0.1-0.1-0.2-0.1-0.3c-1.1-2.3-2.1-4.6-3.2-6.9C99.6,136.7,99.5,136.5,99.2,136.3
							C99.3,136.3,99.2,136.3,99.2,136.3"/>
						<path class="st9" d="M97.7,145c-0.3-0.1-0.5,0.1-0.5,0.6c0,0.2,0,0.5,0,0.7c0,0.6,0.3,1.1,0.7,1.4c0.5,0.3,0.9,0.7,1.4,1.1
							c0.5,0.3,0.9,0.7,1.4,1.1c0,0,0.1,0.1,0.1,0.1c0.3,0.1,0.5-0.1,0.5-0.5c0-0.2,0-0.5,0-0.7c0-0.6-0.3-1.2-0.7-1.5
							c-0.4-0.3-0.9-0.7-1.4-1c-0.3-0.2-0.6-0.5-0.9-0.7c-0.2-0.1-0.3-0.2-0.5-0.3C97.8,145.1,97.7,145,97.7,145"/>
						<path class="st9" d="M97.6,148.5c-0.4-0.2-0.6,0.1-0.5,1c0,0.7,0.2,1.2,0.7,1.6c0.5,0.4,1,0.7,1.5,1.1
							c0.3,0.2,0.6,0.4,0.9,0.7l0.1,0.1c0.1,0.1,0.3,0.2,0.4,0.2c0.4,0.2,0.6-0.1,0.5-1.1c0-0.6-0.2-1.2-0.7-1.5
							c-0.2-0.2-0.5-0.4-0.7-0.5c-0.2-0.2-0.5-0.3-0.7-0.5c-0.2-0.2-0.4-0.3-0.7-0.5c-0.1-0.1-0.3-0.2-0.4-0.3
							c-0.1,0-0.1-0.1-0.2-0.1C97.8,148.6,97.7,148.5,97.6,148.5"/>
						<path class="st9" d="M97.6,151.8c-0.3-0.1-0.5,0.1-0.5,0.6c0,0.6,0.2,1.2,0.6,1.5c0.5,0.4,1,0.7,1.4,1.1
							c0.5,0.4,1,0.7,1.4,1.1c0.1,0,0.1,0.1,0.1,0.1c0.3,0.1,0.5-0.1,0.5-0.7c0-0.6-0.2-1.2-0.7-1.5c-0.5-0.3-0.9-0.7-1.4-1
							c-0.3-0.2-0.6-0.5-1-0.7c-0.2-0.1-0.3-0.2-0.5-0.3C97.7,151.9,97.6,151.8,97.6,151.8"/>
					</g>
				</g>
			</g>
		</g>
		<g>
			<g class="st5">
				<defs>
					<polygon id="SVGID_9_" class="st5" points="155.8,172.7 155.4,128.8 184.7,115.8 185.2,159.7 					"/>
				</defs>
				<clipPath id="SVGID_10_">
					<use xlink:href="#SVGID_9_"  style="overflow:visible;"/>
				</clipPath>
				<g class="st10">
					<path class="st4" d="M173.1,130.3c-0.3,0.1-0.5,0.4-0.7,0.9c-0.1,0.2-0.2,0.5-0.3,0.8c-0.3,0.9-0.8,1.6-1.5,2
						c-0.9,0.5-1.4,2-1,2.9c0.3,0.6,0.8,0.5,1.3,0.4c2.6-0.6,4.5,1.4,4.6,4.9c-0.1,0.5-0.1,1.1-0.2,1.6c-0.5,3.5-2.5,6.5-5,7.6
						c-0.7,0.3-1.3,1.3-1.3,2.3c0,0.9,0.6,1.5,1.3,1.2c0.1,0,0.1,0,0.2-0.1c0.1-0.1,0.2-0.1,0.3-0.2c0,0,0,0,0,0
						c0.6-0.3,1.2-0.1,1.5,0.5c0.1,0.2,0.2,0.5,0.4,0.7c0.2,0.3,0.4,0.3,0.7,0.2c0.1,0,0.2-0.1,0.3-0.2c0.2-0.1,0.3-0.3,0.5-0.5
						c1.2-1.2,1.3-1.4,0.9-2.8c-0.1-0.5-0.1-1.1,0.1-1.8c0.5-1.6,1.3-2.6,2.3-3.1c0.3-0.1,0.6-0.2,0.9-0.2c0.1,0,0.1,0,0.2,0
						c0.1,0,0.1,0,0.2-0.1c0.3-0.1,0.6-0.5,0.7-1c0.1-0.2,0.1-0.5,0.2-0.7c0.5-1.8,0.4-1.9-0.7-2.3c-0.5-0.1-0.9-0.4-0.9-1.1
						c-0.1-2.3-0.3-3.1,1.3-4.9c0.5-0.5,0.6-1.1,0.4-1.6c-0.1-0.2-0.1-0.3-0.2-0.5c-0.4-0.9-0.5-1.3-1-1.1c-0.2,0.1-0.5,0.3-1,0.7
						c-0.2,0.2-0.4,0.3-0.6,0.4c-0.3,0.1-0.5,0.1-0.7,0c-1.3-0.9-2-1.2-1.4-3.7l0-0.2c0.1-0.6-0.1-1-0.5-1c-0.4-0.1-0.7-0.1-1.1-0.1
						C173.4,130.3,173.2,130.3,173.1,130.3"/>
					<path class="st4" d="M169.9,130.8C169.9,130.8,169.8,130.8,169.9,130.8c-5.4,2.6-9.2,11.1-7.8,17.3c0.3,1.3,0.9,2.3,1.3,3.4
						c1,2.4,2,4.7,2.3,7.6c0.1,1.1,0.9,1.6,1.8,1.2c0.2-0.1,0.3-0.1,0.5-0.2c0.3-0.1,0.6-0.3,1-0.4l0,0c0.2-0.1,0.4-0.2,0.6-0.3
						c0.2-0.1,0.4-0.2,0.6-0.3c0,0,0.1,0,0.1,0c0.2-0.1,0.3-0.1,0.5-0.3c0.3-0.3,0.5-0.8,0.4-1.3c-0.1-0.5-0.4-0.7-0.8-0.5
						c-0.5,0.2-1.1,0.5-1.6,0.7c-0.3,0.1-0.7,0.3-1,0.5c0,0,0,0,0,0c-0.4,0.2-0.5,0-0.6-0.4c-0.1-0.6-0.1-1.1-0.3-1.7
						c-0.7-2.8-1.6-5.2-2.7-7.5c-0.1-0.3-0.3-0.6-0.4-0.9c-1.6-5,1.6-12.7,6.2-14.9c0.6-0.3,0.9-0.9,0.9-1.5
						C170.8,130.8,170.4,130.6,169.9,130.8"/>
					<path class="st4" d="M170.4,147.2c-1.2,0.5-2.1-0.3-2.2-1.9c0-1.5,0.9-3.2,2.1-3.7c0,0,0,0,0,0c1.2-0.5,2.1,0.3,2.1,1.9
						C172.5,145,171.6,146.7,170.4,147.2 M171.6,138.7c-0.1,0.1-0.3,0.2-0.4,0.5c-0.2,0.6-0.5,0.9-0.9,1.1c-0.3,0.1-0.7,0.1-0.9-0.3
						c-0.1-0.2-0.2-0.2-0.4-0.2c-0.1,0.1-0.2,0.2-0.4,0.3c-0.3,0.3-0.4,0.5-0.3,0.9c0.2,0.8-0.2,1.8-0.9,2.1c-0.1,0-0.2,0.1-0.3,0.1
						c-0.1,0-0.1,0-0.2,0c-0.2,0.1-0.3,0.4-0.4,0.7c-0.1,0.4-0.2,0.8,0.2,0.9c0.7,0.3,0.8,1.4,0,2.3c-0.3,0.4-0.3,0.7-0.1,1
						c0.1,0.2,0.2,0.4,0.4,0.3c0,0,0.1-0.1,0.2-0.1c0.1-0.1,0.2-0.2,0.3-0.2c0.7-0.3,1.1,0.2,0.9,1.3c-0.1,0.6,0.1,0.6,0.4,0.6
						c0.1,0,0.2,0,0.3,0c0.2-0.1,0.3-0.2,0.4-0.5c0.2-0.6,0.5-0.9,0.9-1.1c0.3-0.1,0.7-0.1,0.9,0.3c0.1,0.2,0.2,0.2,0.4,0.2
						c0.1,0,0.2-0.1,0.3-0.2c0.3-0.3,0.5-0.5,0.4-1c-0.2-0.9,0.3-1.8,0.9-2.1c0.1,0,0.2-0.1,0.3-0.1c0.1,0,0.1,0,0.2,0
						c0.3-0.1,0.4-0.4,0.5-1c0.1-0.4,0-0.5-0.2-0.6c-0.7-0.2-0.7-1.5,0-2.3c0.3-0.4,0.3-0.6,0.2-1c-0.1-0.3-0.2-0.5-0.5-0.4
						c0,0-0.1,0.1-0.2,0.1c-0.1,0.1-0.2,0.1-0.3,0.2c-0.7,0.3-1.1-0.2-0.9-1.3c0.1-0.5-0.1-0.6-0.4-0.6
						C171.8,138.7,171.7,138.7,171.6,138.7"/>
					<path class="st4" d="M170.5,160.7c-1.2,0.5-2.5,1.1-3.7,1.6c-0.6,0.2-0.9,0.8-0.9,1.4c0,0.6,0.3,0.9,0.9,0.6
						c1.2-0.5,2.4-1.1,3.6-1.6c0.8-0.4,1.7-0.7,2.5-1.1c0.4-0.2,0.8-0.4,1.2-0.6c0.5-0.2,0.8-0.8,0.8-1.4c0-0.6-0.4-0.8-0.9-0.6
						C172.9,159.7,171.7,160.2,170.5,160.7"/>
					<path class="st4" d="M170.5,164.2c-0.6,0.3-1.1,0.5-1.7,0.8c-0.5,0.2-0.9,0.8-0.9,1.4c0,0.6,0.3,0.8,0.9,0.6
						c0.2-0.1,0.4-0.2,0.6-0.3c0.4-0.2,0.8-0.3,1.1-0.5c0.4-0.2,0.7-0.3,1.1-0.5c0.2-0.1,0.4-0.2,0.6-0.3c0.6-0.3,0.9-0.8,0.9-1.4
						c0-0.6-0.3-0.9-0.9-0.6C171.6,163.7,171,164,170.5,164.2"/>
					<path class="st4" d="M160.1,131.3c-0.2,0.3-0.4,0.6-0.5,0.9c-0.2,0.4,0,0.7,0.2,0.9c0.7,0.6,1.5,1.3,2.2,1.9
						c0.2,0.1,0.4,0.2,0.5,0.1c0.2-0.1,0.3-0.2,0.4-0.4c0.3-0.5,0.2-1-0.1-1.2c-0.7-0.6-1.5-1.3-2.2-1.9
						C160.6,131.4,160.4,131.4,160.1,131.3"/>
					<path class="st4" d="M180,122.5c-0.2,0.3-0.4,0.5-0.5,0.7c-0.7,1.3-1.4,2.5-2.1,3.8c-0.3,0.6-0.3,1.1-0.1,1.3
						c0.1,0.1,0.3,0.1,0.4,0.1c0.2-0.1,0.4-0.3,0.5-0.6c0.6-1,1.1-2,1.7-3c0.2-0.4,0.4-0.7,0.6-1.1c0.1-0.3,0.1-0.7,0-0.9
						C180.5,122.6,180.2,122.6,180,122.5"/>
					<path class="st4" d="M170.1,122.3C170.1,122.3,170.1,122.3,170.1,122.3c-0.4,0.2-0.6,0.7-0.6,1.2c0,0.7,0,1.3,0,2
						c0,0.7,0,1.4,0,2.1c0,0.5,0.3,0.8,0.7,0.6c0,0,0,0,0,0c0.3-0.2,0.6-0.7,0.6-1.2c0-1.4,0-2.7,0-4.1
						C170.7,122.4,170.4,122.1,170.1,122.3"/>
					<path class="st4" d="M182.6,134.6c-0.5,0.2-1,0.5-1.5,0.7c-0.4,0.2-0.7,0.7-0.7,1.2c0,0.5,0.3,0.7,0.7,0.5
						c0.5-0.2,1-0.4,1.5-0.7c0.5-0.2,1-0.4,1.5-0.7c0.5-0.2,0.8-0.6,0.8-1.2c0-0.5-0.3-0.7-0.7-0.5
						C183.6,134.1,183.1,134.3,182.6,134.6"/>
					<path class="st4" d="M157.8,145.6c-0.5,0.2-1,0.5-1.6,0.7c-0.4,0.2-0.7,0.6-0.7,1.1c0,0.5,0.3,0.7,0.7,0.5
						c0.3-0.1,0.5-0.2,0.8-0.3s0.5-0.2,0.8-0.3c0.3-0.2,0.7-0.3,1-0.5c0.2-0.1,0.3-0.2,0.5-0.2c0.4-0.2,0.7-0.6,0.7-1.2
						c0-0.5-0.3-0.7-0.7-0.5C158.9,145.1,158.3,145.3,157.8,145.6"/>
				</g>
			</g>
		</g>
	</g>
</g>
</svg>
